/* XPM */
static char *_3f814ab07fc48eba0f3602684be3bc4LEXsgW5xVF9m3hxJ[] = {
/* columns rows colors chars-per-pixel */
"64 64 233 2 ",
"   c #030001",
".  c #0B0001",
"X  c #140001",
"o  c #1C0000",
"O  c #16090C",
"+  c #1C1315",
"@  c #230000",
"#  c #2D070F",
"$  c #270D07",
"%  c #30050F",
"&  c #3C050A",
"*  c #361A0D",
"=  c #300613",
"-  c #360F19",
";  c #3A0E18",
":  c #3E0410",
">  c #361119",
",  c #3E101B",
"<  c #2F0511",
"1  c #3B2525",
"2  c #4E0010",
"3  c #580A17",
"4  c #5B111D",
"5  c #49030E",
"6  c #68061A",
"7  c #75051D",
"8  c #492E1D",
"9  c #442919",
"0  c #47311C",
"q  c #4A1E27",
"w  c #531D2B",
"e  c #6E1C2C",
"r  c #681122",
"t  c #711526",
"y  c #492727",
"u  c #54242C",
"i  c #492E31",
"p  c #5A2B35",
"a  c #48373A",
"s  c #593038",
"d  c #66242F",
"f  c #71202F",
"g  c #652633",
"h  c #6B2B34",
"j  c #662632",
"k  c #772838",
"l  c #6F323C",
"z  c #595354",
"x  c #57484D",
"c  c #664E55",
"v  c #69595E",
"b  c #696769",
"n  c gray50",
"m  c #796767",
"M  c #881D31",
"N  c #852C3D",
"B  c #A3243F",
"V  c #B01B31",
"C  c #C11933",
"Z  c #C82437",
"A  c #D4243E",
"S  c #D73639",
"D  c #E23939",
"F  c #844816",
"G  c #985624",
"H  c #AF6A33",
"J  c #E75C3F",
"K  c #F67B3F",
"L  c #8E3A4B",
"P  c #893648",
"I  c #93394C",
"U  c #9D394D",
"Y  c #9D3249",
"T  c #993B51",
"R  c #842C42",
"E  c #AA2C45",
"W  c #B72D47",
"Q  c #A63649",
"!  c #BD344C",
"~  c #B6354B",
"^  c #A73B51",
"/  c #BE3451",
"(  c #BE3A52",
")  c #BE3B5A",
"_  c #CB1D42",
"`  c #CB2D4D",
"'  c #CC2944",
"]  c #D52444",
"[  c #DB2745",
"{  c #D42C45",
"}  c #DA2A44",
"|  c #DB264A",
" . c #D42C4B",
".. c #DC2A4B",
"X. c #D62748",
"o. c #C2324D",
"O. c #CB334E",
"+. c #DD324D",
"@. c #DC3A4C",
"#. c #DB3643",
"$. c #C53652",
"%. c #CB3552",
"&. c #C33C58",
"*. c #D43352",
"=. c #DD3953",
"-. c #D32C53",
";. c #E02645",
":. c #E12A45",
">. c #E12B4B",
",. c #E02749",
"<. c #E4334D",
"1. c #EA364D",
"2. c #EC394E",
"3. c #E63747",
"4. c #F53E46",
"5. c #FA3F45",
"6. c #F33D4C",
"7. c #F83D4D",
"8. c #E52E54",
"9. c #E53352",
"0. c #EA3654",
"q. c #E53A54",
"w. c #EB3953",
"e. c #ED3659",
"r. c #E63958",
"t. c #EB3859",
"y. c #F23C52",
"u. c #F33856",
"i. c #974E5F",
"p. c #BB4453",
"a. c #8E6341",
"s. c #885B64",
"d. c #945966",
"f. c #954E60",
"g. c #986A74",
"h. c #827A7D",
"j. c #A46C79",
"k. c #B67454",
"l. c #C4415E",
"z. c #C04057",
"x. c #D74B59",
"c. c #CC484C",
"v. c #EB4A4E",
"b. c #F64044",
"n. c #FC4444",
"m. c #F6414C",
"M. c #FB434A",
"N. c #ED5B49",
"B. c #F3584D",
"V. c #E8485B",
"C. c #FA4351",
"Z. c #F74151",
"A. c #E75457",
"S. c #D27954",
"D. c #F46B47",
"F. c #FA7D4E",
"G. c #FA794C",
"H. c #FE7B5C",
"J. c #F77C52",
"K. c #EF6D49",
"L. c #EC4D62",
"P. c #EC5665",
"I. c #F45D6C",
"U. c #F14F64",
"Y. c #D47060",
"T. c #FD636E",
"R. c #FD6562",
"E. c #FC7463",
"W. c #FF736E",
"Q. c #FF7C68",
"!. c #FE6473",
"~. c #FD6E75",
"^. c #FF6D7A",
"/. c #FB6775",
"(. c #FD7675",
"). c #FF747B",
"_. c #FF7A7A",
"`. c #FE7975",
"'. c #D28352",
"]. c #DB955A",
"[. c #CE834C",
"{. c #F88946",
"}. c #FE8D52",
"|. c #FC8557",
" X c #FF9658",
".X c #FC9958",
"XX c #E58249",
"oX c #D29566",
"OX c #FB9B61",
"+X c #F6A464",
"@X c #987F85",
"#X c #AB7783",
"$X c #FF7481",
"%X c #FF7A83",
"&X c #858183",
"*X c #888687",
"=X c #8D868A",
"-X c #8D8B8B",
";X c #928B8D",
":X c #9A8389",
">X c #9B9999",
",X c #A6979A",
"<X c #B0969F",
"1X c #AA9EA5",
"2X c #9FA2A3",
"3X c #A4A3A4",
"4X c #ABA5A7",
"5X c #B3A2A3",
"6X c #BDBBBC",
"7X c #CEBFC2",
"8X c #DDBFC1",
"9X c #C5CAC9",
"0X c #C9C9CA",
"qX c #C7C5C6",
"wX c #D8C3C8",
"eX c #D1CFD2",
"rX c #DBDBDD",
"tX c #D8D4D4",
"yX c #E1C7CC",
"uX c #E6D7DA",
"iX c #E3CCD2",
"pX c #DEE0DF",
"aX c #EDDEE1",
"sX c #E4E5E5",
"dX c #EFE6E7",
"fX c #ECE9E9",
"gX c #E7EBEA",
"hX c #F2EBEC",
"jX c #F3EFF0",
"kX c #F4F3F4",
"lX c #FEFFFE",
"zX c #FBF9F8",
"xX c #EFF3F4",
/* pixels */
"lXlXlXlXlXlXlXlXlXlXlXlXlXlXlXlXlXlXlXlXlXlXlXlXlXlXlXlXlXlXlXlXlXlXlXlXzXlXlXlXlXlXlXlXlXlXlXlXlXlXlXlXlXlXlXlXlXlXlXlXlXlXlXlX",
"lXlXlXlXlXlXlXlXlXlXlXlXlXlXlXlXlXlXlXlXlXlXlXlXlXlXlXlXlXlXlXlXlXlXlXlXlXlXlXlXlXlXlXlXlXlXlXlXlXlXlXlXlXlXlXlXlXlXlXlXlXlXlXlX",
"lXlXlXlXlXlXlXlXlXlXlXlXlXlXlXlXlXlXlXlXlXlXlXlXlXlXlXlXlXlXlXlXlXzXlXlXlXlXlXlXlXlXlXlXlXlXlXlXlXlXlXlXlXlXlXlXlXlXlXlXlXlXlXlX",
"lXlXlXlXlXlXlXlXlXlXlXlXlXlXlXlXlXlXlXlXlXlXlXlXlXlXlXlXlXlXlXlXlXlXlXlXlXlXlXlXlXlXlXlXlXzXlXlXlXlXlXlXlXlXlXlXlXlXlXlXlXlXlXlX",
"lXlXlXlXlXlXlXlXlXlXlXlXlXlXlXlXlXlXlXlXlXlXlXlXlXlXlXlXlXlXlXlXlXlXzXlXlXlXlXlXlXlXlXlXlXlXlXlXlXlXlXlXlXlXlXlXlXlXlXlXlXlXlXlX",
"lXlXlXlXlXlXlXlXlXlXlXlXlXlXlXlXlXlXlXlXlXlXlXlXlXlXlXlXlXlXlXlX4X*X6XlXlXlXlXlXlXlXlXlXlXlXlXzXlXlXlXlXlXlXlXlXlXlXlXlXlXlXlXlX",
"lXlXlXlXlXlXlXlXlXlXlXlXlXlXlXlXlXlXlXlXlXlXlXlXlXlXlXlXlXlXlXzXz   n lXzXzXlXlXlXlXlXlXlXlXlXlXlXlXlXlXlXlXlXlXlXlXlXlXlXlXlXlX",
"lXlXlXlXlXlXlXlXlXlXlXlXlXlXlXlXlXlXlXlXlXlXlXlXlXlXlXlXlXlXlXkXb   -XzXlXzXlXlXlXlXlXlXlXlXlXlXlXlXlXlXlXlXlXlXlXlXlXlXlXlXlXlX",
"lXlXlXlXlXlXlXlXlXlXlXlXlXlXlXlXlXlXlXlXlXlXlXlXlXlXlXlXlXzXlXkXb   -XlXlXzXlXlXlXzXlXlXlXlXlXlXlXlXlXlXlXlXlXlXlXlXlXlXlXlXlXlX",
"lXlXlXlXlXlXlXlXlXlXlXlXlXlXlXlXlXlXzXlXlXzXlXlXlXlXlXlXlXlXlXlXb   -XlXlXlXlXlXlXlXlXlXlXzXlXlXlXlXlXlXlXlXlXlXlXlXlXlXlXlXlXlX",
"lXlXlXlXlXlXlXlXlXlXlXlXlXlXlXlXlXzXlXlXlXlXlXlXzXlXlXlXzXdXuXtXv . =XlXlXlXlXlXlXlXlXlXlXlXlXlXlXlXlXlXlXlXlXlXlXlXlXlXlXlXlXlX",
"lXlXlXlXlXlXlXlXlXlXlXlXlXlXlXlXlXzXlXlXkXlXlXlXlXlXlXlXlX,X. + a . =XlXlXlXlXzXzXlXlXzXlXlXlXlXlXlXlXlXlXlXlXlXlXlXlXlXlXlXlXlX",
"lXlXlXlXlXlXlXlXlXlXlXlXlXlXlXlXlXlXlXlXlXlXlXlXlXlXzXzXlX5X. a a O >XlXzXlXlXlXlXlXlXlXlXlXlXlXlXlXlXlXlXlXlXlXlXlXlXlXlXlXlXlX",
"lXlXlXlXlXlXlXlXlXlXlXlXlXlXlXlXlXlXsX>X3X2X3X3X2X2X3X3X5Xm $ i 1 O z 3X2X1X3X3X3X1X3X3X>XpXzXlXlXlXlXlXlXlXlXlXlXlXlXlXlXlXlXlX",
"lXlXlXlXlXlXlXlXlXlXlXlXlXlXlXlXlXlXeX                  . X i 1 O +                       9XlXlXlXlXlXlXlXlXlXlXlXlXlXlXlXlXlXlX",
"lXlXlXlXlXlXlXlXlXlXlXlXlXlXlXlXkXlXiXX s u y y y 8 0 9 8 8 1 1 * $ * 0 9 8 8 y y u y s o wXlXkXlXlXlXlXlXlXlXlXlXlXlXlXlXlXlXlX",
"lXlXlXlXlXlXlXlXlXlXlXlXlXlXlXzX@Xx f.U ~ &.) p.Y.S.[.].oXa.X 9 k.[.[.].].'.S.Y.p.( $.Q Y f.v b fXlXzXlXzXlXlXzXlXlXlXlXlXlXlXlX",
"lXlXlXlXlXlXlXlXlXzXlXzXlXlXlXlXc @ 6 / ' *.@.c.E.J.{..X+Xa.@ @ '.{.{..X.X{.|.Q.v.#.r.` %.7 @ X hXlXlXzXlXlXlXlXlXlXlXlXlXlXlXlX",
"lXlXlXzXzXlXlXlXlXzXlXlXlXsXtXtXf.6 Q x.x.V.A.A.E.H.F.}..XH F G XX{.{.{.}.F.D.R.A.A.V. .*.W M k 8XuXrXlXlXlXzXlXlXlXlXlXlXlXlXlX",
"lXlXlXlXlXlXlXlXzXzXlXlXlX>X  o ^ ( x.%X`._.`.`.).|.H.J.XX.XOXOX X.X{.K F.J S @.(.%X/.=.V.*.o.^ & X h.lXlXlXlXlXlXlXlXlXlXlXlXlX",
"lXlXlXlXlXlXlXlXlXlXlXzXzX5Xo 4 E V x.%X`.`._.(._.W.E.H.J.}. X X X.X}.G.H.B.D q.^.%X^.' *...{ o.k o :XlXzXlXlXlXlXlXlXlXlXlXlXzX",
"lXlXlXzXlXlXlXlXzXlXpX>X<Xg.f E P.I./._.`.`.`.).).).W.B.N.D.D.D.D.D.D.B.B.v.1.u.U.P.I.T.!.V.] ` E e d.<X;XrXzXlXlXlXlXlXlXlXlXlX",
"lXlXlXlXlXlXlXlXlXlXrX  X k ) %.).%X_.`.`._.`._.)._./.S S S D D D D 3.S 3.1.7.u.w.{ A.$X$XL._ -.*.&.R @ . 0XzXlXlXlXlXlXlXzXlXlX",
"lXlXlXlXlXlXlXlXlXlXrX. ; T $.{ ~._.`._._.(._.).).)./.3.w.Z.M.7.7.7.y.0.1.6.u.y.u.w.V.).$XU._ 8.| %.U w . 0XlXlXlXlXlXlXlXlXlXlX",
"lXlXlXlXlXlXlXlXzXlXrX. # L $.{ ~._._.(.$XP.@.=.q.+.r.V.2.7.M.5.5.M.b.4.6.3.[ :.>.;.>.2.9.+.>.| ..$.I ;   9XlXlXlXlXlXlXlXlXlXzX",
"lXlXlXlXlXlXlXlXlXlXrX  < P $.{ ~._.)._.%XL.C { X.] +.w.y.M.M.M.M.M.M.b.y.3.} } [ | [ ] ] } ,.| ..%.L ;   9XlXlXlXlXlXlXlXlXlXzX",
"lXlXlXlXlXlXlXzXlXlXrX. < L %.{ ^.).~./.!.V.[ 8.....+.q.6.1.7.7.u.7.u.2.1.<...<.>.>.+... ...| | [ %.I ;   0XlXlXlXlXlXlXlXlXlXlX",
"lXlXlXlXlXlXlXlXlXlXrX. < L O.} ~._.T.V Z 9.u.0.u.w.9.} :.A ;.;.;.;.[ [ } <.r.r.q.r.=... . .| >.| *.I ; . 0XlXlXlXlXlXlXzXlXlXlX",
"lXlXlXlXlXlXlXlXzXlXpX. = L $.{ ^.%X/.' ..9.e.e.e.t.<.} [ [ :.A } } } } } <.0.e.r.q.8.| X.....| | %.L - . 0XlXzXlXlXlXlXlXlXlXlX",
"lXlXlXlXlXlXlXlXzXlXrX. = L $. .V.P.V.' X.8.e.0.t.0.9.<.1.1.1.2.<.2.<.1.0.0.e.e.q.q.t.8.<.<.} | ..$.L - . 0XlXlXlXlXlXlXlXlXlXlX",
"lXlXlXlXlXlXlXlXzXlXrX. = L &.| ] A ] ..| <.w.w.w.w.w.t.0.w.y.m.6.y.w.w.0.u.t.1.w.w.0.0.0.>.[ ....$.L >   0XlXlXlXlXlXlXlXlXlXlX",
"lXlXlXlXlXlXlXzXzXlXrX. = L $.| | >.| ..| <.w.2.<.2.0.w.<.6.m.2.7.7.2.2.1.0.1.1.0.w.0.0.w.9.[ [ ..$.L -   9XlXlXlXlXlXlXlXlXlXlX",
"lXlXlXlXlXlXlXlXlXlXrX. < L $.} | >...t.q.9.2.2.w.y.7.2.7.M.M.5.M.M.7.4.2.6.y.2.1.w.w.w.w.r.9.q.| $.i.= . 9XlXlXlXlXlXlXlXlXlXlX",
"lXlXlXlXlXzXlXlXlXlXrX. < L %.| | | | 0.9.2.2.1.y.u.4.6.4.5.M.n.M.M.5.7.4.6.4.6.1.2.1.9.9.0.0.0.| O.L >   9XlXzXlXlXlXlXlXlXlXzX",
"lXlXlXlXlXlXlXlXlXlXrX. # L $.} >.>.<.w.2.2.m.2.7.4.4.7.4.n.n.n.n.5.5.5.5.m.7.6.6.y.6.1.w.w.0.w...O.L > . 0XlXzXlXlXlXlXlXlXlXlX",
"zXlXlXlXlXlXlXlXlXlXuX. % L %.| t.w.q.Z.Z.m.m.C.m.M.M.M.n.n.n.n.J 5.5.n.M.M.M.m.M.C.y.6.y.w.0.0.| O.I >   0XlXlXlXlXlXlXlXlXlXlX",
"lXlXlXlXlXlXlXlXlXlXrX  # L %.[ 0.w.2.2.2.M.M.n.M.n.n.n.n.n.J n.5.n.D 5.n.n.M.M.M.M.7.7.6.6.0.e.>.O.L >   0XlXzXlXlXlXlXlXlXzXlX",
"lXlXzXlXlXlXlXlXzXlXrX  # L %.[ 9.w.2.y.7.7.b.M.n.n.n.n.n.n.5.D n.n.5.J n.n.n.M.n.5.M.M.7.2.t.0.>.O.L >   9XlXlXlXlXlXlXlXlXlXlX",
"lXzXlXlXlXlXlXlXlXlXrX  # L %...0.t.w.y.7.m.M.n.n.D n.n.n.n.n.n.n.J 5.n.n.n.n.M.5.5.M.M.Z.w.0.0.,.O.I >   9XlXzXlXlXlXlXlXlXzXlX",
"zXlXlXlXlXlXlXlXzXlXrX  < L $.| 0.w.w.y.7.7.M.n.n.5.J n.n.n.M.n.D 5.D 5.J n.n.n.J n.M.M.C.y.t.t.,.%.I >   9XlXlXlXlXlXlXzXlXlXlX",
"lXlXlXlXlXlXlXlXzXlXrX. , I %.| 9.r.0.2.1.M.M.n.n.n.n.n.n.n.5.n.n.n.J 5.n.n.J n.n.n.n.4.2.1.0.t.>.` T q . 0XlXlXlXlXlXlXlXlXlXlX",
"lXlXzXzXlXlXlXlXlXlXtX  o k l. .r.e.0.1.1.7.M.M.n.n.n.n.n.n.5.5.n.n.5.5.M.M.5.D n.M.7.3.2.0.w.r.*.l.P @ X 6XlXzXlXlXlXlXlXlXlXlX",
"lXlXlXlXlXlXlXlXzXlXsX*X:Xg.k Q *.9.0.w.1.7.7.M.M.n.n.n.n.n.n.5.J n.n.n.M.n.n.n.M.M.4.1.w.r.9.@.W N s.:Xn rXlXzXlXlXlXlXlXlXlXlX",
"lXlXlXlXlXlXlXlXlXlXlXlXlX5Xo 3 W ....2.1.w.7.4.M.n.n.n.n.n.n.J 5.n.M.n.M.n.n.M.4.m.w.9.q.<.} o.f @ :XzXlXlXzXlXlXlXlXlXlXlXlXzX",
"lXlXlXlXlXlXlXlXzXzXlXlXlX3X. w W { ..t.w.Z.Z.2.m.n.M.n.n.n.n.n.5.5.n.n.n.n.m.m.m.w.w.t.t.>...! f X &XlXlXlXzXzXlXlXlXlXlXlXlXlX",
"lXlXlXlXlXlXlXlXzXlXlXlXlX2X  p ~ ....+.>.<.2.2.m.4.n.n.n.n.n.n.n.5.n.n.n.n.b.m.6.w.t.>.<...} ! h X -XlXlXlXlXlXlXlXlXlXzXlXlXlX",
"lXlXlXlXlXlXlXlXlXlXzXlXlX2X  q ~  .-...| 9.w.2.7.4.5.M.n.n.n.n.n.5.n.n.n.b.b.6.w.w.9.} | | ..o.h . &XlXlXzXlXlXlXlXlXlXlXlXlXlX",
"lXlXlXlXlXlXlXlXlXzXlXlXlX1X  y Y $.`  ...9.w.w.w.w.7.M.M.M.M.n.M.n.n.M.b.b.4.y.0.w.9.| ..` o.^ p . =XlXlXzXlXlXlXzXlXlXlXlXlXlX",
"lXlXlXlXlXlXlXlXlXlXlXlXlXkXfXaXs.2 E ` X.| >.} @.q.2.2.1.5.M.M.M.M.M.3.1.1.0.0.3.} <.] ` E e p iXfXhXlXlXlXlXlXlXlXlXlXlXlXlXlX",
"lXlXlXlXlXlXlXlXlXlXlXlXlXlXlXlXx o 3 p.O. .{ } q.r.r.w.1.6.C.M.M.M.7.0.0.0.u.u.} { ' O.&.6 X   fXlXlXlXlXlXlXlXlXlXlXlXlXlXlXlX",
"lXlXlXlXlXlXlXlXlXlXlXlXlXlXlXzX,X@Xj.l Q ~ ` >.8.0.>.0.1.6.C.y.m.m.y.3.1.0.0.8.>. .! Q N j.:X@XjXlXlXlXlXlXlXlXlXlXlXlXlXlXlXlX",
"lXlXlXlXlXlXlXlXlXlXlXlXlXlXlXlXlXzXuXo 4 Y %.| | ,.;.;.[ <.w.1.2.2.3.A [ [ >.| | %.Y 4 @ yXlXlXzXlXlXlXlXlXlXlXlXlXlXlXlXlXlXlX",
"lXlXlXlXlXlXlXlXlXlXlXlXlXlXlXlXzXlXeXX o e ) ` ..>.[ ;.} <.w.w.w.w.<.} } } .. .-.) k o X wXlXzXlXlXlXlXlXlXlXlXlXlXlXlXlXlXlXlX",
"lXlXlXlXlXlXlXlXlXlXlXlXlXlXlXlXlXlXjXqXwX#Xr E ` ..[ [ } ..+.....9.<.A ..{  .O.E r #XwXqXgXlXlXlXlXlXlXlXlXlXlXlXlXlXlXlXlXlXlX",
"lXlXlXlXlXlXlXlXlXlXlXlXlXlXlXlXzXlXlXlXlX,XX 5 W -......... .| | | } [ ....| $.r @ @XzXlXzXlXlXlXlXlXlXlXlXlXlXlXlXlXlXlXlXlXlX",
"lXlXlXlXlXlXlXlXlXlXlXlXlXlXlXlXlXlXlXzXlX>X  i U / $.! ! ( / / / / $.o./ / / ^ l . ;XlXlXzXlXlXlXlXlXlXlXlXlXlXlXlXlXlXlXlXlXlX",
"lXlXlXlXlXlXlXlXlXlXlXlXlXlXlXlXlXlXlXlXzXxXgXgXs.: h j g g g g g g d d d d g p uXhXkXlXlXlXlXlXlXlXlXlXlXlXlXlXlXlXlXlXlXlXlXlX",
"lXlXlXlXlXlXlXlXlXlXlXlXlXlXlXlXlXlXlXlXlXlXzXlXz . . . . . . . . . . . X . . . hXlXlXlXlXlXlXlXlXlXlXlXlXlXlXlXlXlXlXlXlXlXlXlX",
"lXlXlXlXlXlXlXlXlXlXlXlXlXlXlXlXlXlXlXlXlXzXlXzX3X*X=X-X-X-X=X-X-X-X=X;X-X-X-X-XkXlXzXlXlXlXzXlXlXlXlXlXlXlXlXlXlXlXlXlXlXlXlXlX",
"lXlXlXlXlXlXlXlXlXlXlXlXlXlXlXlXlXzXlXlXlXlXlXlXlXlXlXlXlXlXlXzXlXlXlXlXlXlXlXlXzXlXlXlXlXlXlXlXlXlXlXlXlXlXlXlXlXlXlXlXlXlXlXlX",
"lXlXlXlXlXlXlXlXlXlXlXlXlXlXlXlXlXlXlXzXlXzXlXlXlXzXlXlXlXlXlXlXlXlXlXlXlXlXzXlXlXlXzXlXzXlXzXzXlXlXlXlXlXlXlXlXlXlXlXlXlXlXlXlX",
"lXlXlXlXlXlXlXlXlXlXlXlXlXlXlXlXzXlXlXlXlXlXlXlXlXzXlXzXlXzXlXlXlXlXlXlXlXlXzXlXlXlXlXlXlXlXzXlXlXlXlXlXlXlXlXlXlXlXlXlXlXlXlXlX",
"lXlXlXlXlXlXlXlXlXlXlXlXlXlXlXlXlXlXlXlXlXlXlXlXlXlXlXlXlXlXlXlXzXlXlXlXlXlXlXlXlXlXlXlXlXlXlXlXlXlXlXlXlXlXlXlXlXlXlXlXlXlXlXlX",
"lXlXlXlXlXlXlXlXlXlXlXlXlXlXlXlXlXlXlXlXlXlXlXlXlXlXlXlXlXlXlXzXzXlXzXlXlXlXlXlXzXzXlXlXlXlXlXlXlXlXlXlXlXlXlXlXlXlXlXlXlXlXlXlX"
};
