/* XPM */
static char *c3aeae7b581f435cc5d525430b4cb628Jiiig1Gf48OGu5Q2[] = {
/* columns rows colors chars-per-pixel */
"16 16 6 1 ",
"  c #3A9311",
". c #3D9815",
"X c #328530",
"o c #44A318",
"O c #58AC14",
"+ c #70C725",
/* pixels */
"+Xo+ooO+Oo+X+oXo",
"+ooo o+oooo+oooo",
"oo+Oo +ooX.+oo.X",
"Xoo+.ooo+OXoo+Xo",
"oo + +o o+Xo oX+",
"o+Oo.Xooo+ooooo+",
"oo+oXoO+oooo+o+X",
"X + Xo+ooo+oo+o+",
"o    o+oX.o+oXo+",
".X.+Oooo+XooX.oo",
"+oXoO+o .Xo+O+ o",
"ooXo+ooo+Ooo+oo ",
"o+oo+oX.o+o + oo",
"oo+.XO+Xo+o  o.X",
"X.+Xo+ X oX.o+Xo",
"oXoXo+o  +oXOoX+"
};
