/* XPM */
static char *aabeeeef0e6e4e81a956580056b2a123Kr8q65tR1dVrYPQo[] = {
/* columns rows colors chars-per-pixel */
"16 16 11 1 ",
"  c #356749",
". c #5C754F",
"X c #3A9311",
"o c #3D9815",
"O c #328530",
"+ c #44A318",
"@ c #58AC14",
"# c #70C725",
"$ c #6F9B5B",
"% c #8C9E84",
"& c #A5ADA1",
/* pixels */
"#O+#++ooo+@O@oOo",
"oO OXO$%%%$%%%$$",
" OO +.%%%%%%$%%%",
"O O o.&%%%%%%%%&",
"O O X &+$%&%$+&&",
"+OOOo . + . O ..",
"++#+OO  +      O",
"OX#$%%$%%$ $%$$O",
"+X$%%%%%%% %%%%$",
"oO%&%%%%$% &$%%%",
"# &%%%&%%%O%&%%&",
"+O&%&%%%%& &%%&%",
"X %&&+$&&&O&&&%&",
"X  .. + +.  %&&&",
"XOX  O+O++O  +. ",
"XO+O+#+XX#OO +O#"
};
