/* XPM */
static char *cd7ee2dc44944f2bd3afd816895def6eCQUiKLYYMEqhGJR8[] = {
/* columns rows colors chars-per-pixel */
"64 64 148 2 ",
"   c None",
".  c #000000",
"X  c #0A0000",
"o  c #070808",
"O  c #0B0C0B",
"+  c #110501",
"@  c #160A04",
"#  c #180B05",
"$  c #100F0F",
"%  c #1C0F0A",
"&  c #0F110F",
"*  c #1D110C",
"=  c #0F1112",
"-  c #151414",
";  c #1A1615",
":  c #161818",
">  c #1B1B1B",
",  c #221A17",
"<  c #221D1B",
"1  c #1E211F",
"2  c #1F1F21",
"3  c #1F2121",
"4  c #232424",
"5  c #292525",
"6  c #262729",
"7  c #262A2A",
"8  c #2B2B2C",
"9  c #312F2F",
"0  c #2D2F31",
"q  c #2E3031",
"w  c #333233",
"e  c #393636",
"r  c #353837",
"t  c #343739",
"y  c #36393A",
"u  c #3A3B3B",
"i  c #3C403F",
"p  c #3C3F41",
"a  c #3E4243",
"s  c #414545",
"d  c #434748",
"f  c #464A4B",
"g  c #494D4D",
"h  c #4C4F51",
"j  c #4D5152",
"k  c #515456",
"l  c #535758",
"z  c #555A5B",
"x  c #595C5D",
"c  c #5B5E61",
"v  c #5D6264",
"b  c #606567",
"n  c #626669",
"m  c #656A6D",
"M  c #686C6E",
"N  c #696E71",
"B  c #6D7275",
"V  c #757A7D",
"C  c #777D80",
"Z  c #797F82",
"A  c #7C8284",
"S  c #7F8689",
"D  c #81878B",
"F  c #838A8D",
"G  c #878D91",
"H  c #898F92",
"J  c #8B9295",
"K  c #8E9599",
"L  c #90979B",
"P  c #92999D",
"I  c #969EA2",
"U  c #989FA3",
"Y  c #99A1A5",
"T  c #9DA5A9",
"R  c #A0A7AB",
"E  c #A3ABAF",
"W  c #A5ADB1",
"Q  c #A7B0B4",
"!  c #A9B1B5",
"~  c #ADB6BA",
"^  c #AFB8BC",
"/  c #B1BABE",
"(  c #B4BDC1",
")  c #B7C0C4",
"_  c #B9C2C6",
"`  c #BCC5CA",
"'  c #C0CACE",
"]  c #C4CED2",
"[  c #C7D1D5",
"{  c #C8D2D7",
"}  c #CAD4D8",
"|  c #CDD7DC",
" . c #CCD7DC",
".. c #CAD5D9",
"X. c #CDD8DC",
"o. c #CFD9DE",
"O. c #CFD9DE",
"+. c #D0DADF",
"@. c #D1DBE0",
"#. c #D0DBE0",
"$. c #D1DCE1",
"%. c #D2DDE2",
"&. c #D3DDE2",
"*. c #D3DEE2",
"=. c #D3DEE3",
"-. c #D4DEE3",
";. c #D4DFE3",
":. c #D5DFE4",
">. c #D4DFE4",
",. c #D2DDE2",
"<. c #D5E0E5",
"1. c #D6E0E5",
"2. c #D7E1E6",
"3. c #D7E2E7",
"4. c #D6E1E6",
"5. c #D8E2E7",
"6. c #D8E3E8",
"7. c #D9E3E8",
"8. c #D9E4E9",
"9. c #DAE5EA",
"0. c #DBE5EA",
"q. c #DBE6EB",
"w. c #DBE7EC",
"e. c #DCE7EC",
"r. c #DBE6EB",
"t. c #DCE8ED",
"y. c #DDE8ED",
"u. c #DEE9EE",
"i. c #DFEAEF",
"p. c #DDE9EE",
"a. c #DFEBF0",
"s. c #DFEBF0",
"d. c #E0EBF0",
"f. c #E0EBF1",
"g. c #E1ECF1",
"h. c #E1EDF2",
"j. c #E2EDF3",
"k. c #E3EEF3",
"l. c #E2EEF3",
"z. c #E3EFF4",
"x. c #E3EEF4",
"c. c #E4EFF5",
"v. c #E2EDF2",
"b. c #E4F0F5",
"n. c #E6F1F6",
"m. c #E6F2F7",
"M. c #E4F0F5",
"N. c #E7F2F8",
/* pixels */
"                                                                                                                                ",
"                                                                                                                                ",
"                                                                                                                                ",
"                                                                                                                                ",
"                                                                                                                                ",
"                                                                                                                                ",
"                                                                                                                                ",
"                                                                                                                                ",
"                              .                                         .                                                       ",
"                            . . . . . . . . . . . . . . . . . . . . . . . .                                                     ",
"                          2 j M m V L T Y Y Y Y Y I Y Y Y I Y Y Y P A z . . .                                                   ",
"                    . . . y Z P L ! { 5.<.&.&.&.&.>.&.&.&.>.&.;.6.{ ~ S t . . . . .                                             ",
"                  7 k n z A W ` _ { t.b.c.k.b.g.g.k.k.k.x.g.c.c.b.t.../ P D J G V j                                             ",
"                . t Z P J W { 8.<.<.0.e.e.e.t.t.t.t.e.t.e.t.t.e.e.0.<.&.o.o.&.] ! A 4 . . .                                     ",
"                p B K W / ] 8.x.t.i.t.0.0.0.r.r.r.r.0.0.r.r.r.r.r.t.t.f.g.b.b.t...^ P Z B l                                     ",
"            . 0 C K P ! [ 6.r.t.t.t.0.t.r.r.0.t.r.r.0.e.r.e.r.r.r.r.e.e.t.t.t.e.8.<.:.{ ^ F h . . . . . . . . . . . . . . . . . ",
"            0 N L W ! ` 8.f.e.r.r.r.r.r.r.r.r.r.r.e.r.r.e.r.r.e.r.r.r.r.r.p.r.r.6.<.<.[ ~ G j . : 1 3 3 3 3 4 > . o 1 3 & . . . ",
"        . 0 B K I ~ ] :.0.e.e.r.e.r.e.r.r.e.e.r.r.r.r.r.r.r.r.r.r.r.r.t.M.M.m.r.{ ~ J B n j g i a a a a a s s r . & i a 1 .     ",
"        : n K R T ( :.f.e.e.e.r.r.r.e.r.r.r.r.r.e.r.r.e.r.r.r.r.r.r.r.8.O.X.$.[ Q A 7 . . O a j j g g h g g j s 6 4 s a 4 .     ",
"      a N J Y W T ( &.f.e.e.0.r.r.r.r.r.r.e.r.r.r.r.r.r.e.r.r.e.r.p.m.<.T A F S M j r 1 8 y g g g g g g g g g f a y w 7 >       ",
"    . k J E W E T ( o.p.p.r.t.r.e.r.r.e.r.r.r.r.r.r.e.r.r.0.e.0.r.r.p.` v . . . . & a j g g g g g g g g g g g g j s 1 .         ",
"    . f K ! W W T ^ #.s.r.r.r.r.r.r.r.r.e.r.r.e.r.r.r.r.r.e.0.e.g.O.! A f . . - 1 t g j g g g g g g g g f g f g j s : .         ",
"    . c I ! E R T ( #.s.p.r.r.r.r.r.r.r.r.r.r.r.r.e.e.r.e.0.e.t.M.[ m . r j g g g g g f g g g g f g g g g g f g g s 4 .         ",
"  a v D U W W W Y ( >.s.s.r.r.r.e.r.r.e.r.r.e.r.r.r.r.r.r.r.e.t.M.' z . w l j j g g r r s g g g g g g g g g g g g f a 8 >       ",
". f G Y R W W R T ( o.t.r.r.r.r.r.r.e.r.e.r.r.e.r.r.e.r.r.e.r.t.g.[ B . y g g g g s > : a j g g g g g g g g g g g g j s 1 .     ",
". h H W W W R W R ~ ` o.8.s.s.r.r.r.r.r.r.r.r.r.r.r.r.r.r.r.r.t.M...P l y & 1 4 7 4 . : a g g f y w t i s g g g g g j s 4 .     ",
". f D T R W E E E W T ( >.x.s.t.r.r.r.e.e.r.0.e.e.r.r.e.e.0.0.r.p.<.( G f . . . . . . 3 s j g a 6 . . 4 a g g g f g g s 4 .     ",
". f D T R W E E E E Y ! ` ..[ o.r.f.s.e.t.e.r.r.r.r.r.r.t.t.s.8.O.' ( Y V v m m v j 4 - a g j s : . . : s g g g g g g s 1 .     ",
". f D T W W W E E E E W ! Q W ) 6.c.f.s.t.e.e.e.r.r.r.e.t.s.g.>._ E E R T Y Y Y P A a . i j j a > . . > a g g g g g j a > .     ",
". h D T R W E E E W E E T Y U E ( ' ..#.| #.0.t.t.e.t.0.#...o.] Q Y E Q ! ! ! ! Q J f . i j j s q 4 6 q a g g g g g g s t 3     ",
". f G T E W E E E E W E W E W I v N W ( ~ _ :.x.f.f.x.<.` ! ~ ~ Q R E E E Q Q E Q K a . i j g f d a a s f g f g g g g g g u 3 . ",
". f D T R W W E E E E E W W Q I k p Z P I ! ] :.#.#.&.[ ! U T T E E E E E E E E Q Y M r i i f g j j j g g g g g g f g g j s 4 . ",
". h D T R W E E E E E E E E W T U S z m P ! ^ / / ( ( ^ W T W T E E E E E E E Q W T K B t . a j g g g g g g f g f g g g g s 4 . ",
". f F T E W E E E E W E W W W W ^ U q 7 K Q E T T T T T W E W E E E E E W E E E W T W K c 8 a f f g g g f g g f g f g g g i 3 . ",
". j J E E W E W W E E E E E W W ! P u y P ! E E T E T E E E W E E E E W E E E E W W W U H B a 3 a g f g g f g g g f s i s y 1 . ",
". f A I T W E E E E W E E E R W Q P a a L ! W E W W E E W E W W E E E E E E E E T W W W E G d . a g g g g g f g f g k l z g 7 . ",
"  y h Z I E W W E E E E E E E W Q P a a L Q W E E E E W ! ! W T W E E E E W E E E W W W W K a . u j g g g g g g s z B A S B i . ",
"    . a S U T W E W E E W E E W ! P a a P ! W E E E E E T T W W E E E W E E E E E E R W ! P z . a g g g g g g g s x Z H H V s . ",
"      4 l S U W W W W E E E R W Q K a a L Q W E E W W Y Z Z Y W Q E E E W E E W W E E W ! Y D n a 6 8 y g g g g g l M B N z u   ",
"        . h D Y T W E E E W W W Q P a a L Q W E W W ! K p p L ! E E E E E E E E W E E W W W T D g . . 1 a g g g g g g s > .     ",
"          6 c D U W W W E E W W ~ P a a I Q W W W W ^ I q t P ^ Q E E E E E W R R R E E T T E K j . . - q u y y e r w 3 .       ",
"            . k H T W W W E W W Q P a a P Q W E W W ! P a a P ! E E E E W E W R P U R E U I Y H j .     o o o o o o o o         ",
"              6 n G U W W W ! W W J p a I ~ Q W ! T K B 0 0 B K T Q W E E E W R U U R R T K D N a         . . . . . .           ",
"                . x H E W W ! W E G t a I ^ Q Q ~ U v . . . . v P ! W E E W W E U I U Y T J z .                                 ",
"                . 8 B F H J J H G N 8 t Z P J J K A q . . . . d P ~ Q W W W W U G Z A A D B 8 .                                 ",
"                . 4 f k k k k j k d > = y d d a f u : . . . . l I / ! Q Q Q R J n s g f s w : .                                 ",
"                . X + # % * % , , < - . . . . . . . . $ . . . f S P P P P L J V d + , @ X . . O                                 ",
"                    X , 5 e 9 e w 9 : .                     . 4 s z x c x x x j i 9 e 9 O .                                     ",
"                    . - 9 e e e u 9 ; .                     $ . . . + , , * , 5 9 w e 9 : .                                     ",
"                    . - 9 e e e e 9 ; .                         . X 5 9 9 9 9 9 < < e 9 : .                                     ",
"                    . : 9 u e e e w : .                         . : 9 e e e u 9 o O 9 e : .                                     ",
"                    . : 9 e e e e 9 : .                         . : 9 e e e e 9 O $ w e > .                                     ",
"                    X : w e e e e 9 ; .                         . : 9 e e e e 9 $ O w 9 : .                                     ",
"                    . ; w u u u u w > .                         . > w u u u u w : X < 2 -                                       ",
"                    . : 9 e e e u 9 > .                         . : 9 e e e e 9 : . . .                                         ",
"                    . $ 2 5 5 5 5 2 -                             % 4 5 6 5 5 2 -   .                                           ",
"                    . . . . . . . .                                 . . . . . .                                                 ",
"                      . . . . . .                                     . . . .                                                   ",
"                                                                                                                                ",
"                                                                                                                                ",
"                                                                                                                                ",
"                                                                                                                                ",
"                                                                                                                                ",
"                                                                                                                                "
};
