/* XPM */
static char *_8286aac533942a1d3db6c7d8295f152wxGHm5Hypv8Z6etL[] = {
/* columns rows colors chars-per-pixel */
"64 64 142 2 ",
"   c #4B9F7B",
".  c #46A07C",
"X  c #4AA47F",
"o  c #52A47E",
"O  c #4EA681",
"+  c #4DAB83",
"@  c #4FAD88",
"#  c #51A782",
"$  c #52AB84",
"%  c #59AB85",
"&  c #57AF8A",
"*  c #5BAF8A",
"=  c #4FB087",
"-  c #56B28B",
";  c #5BB28D",
":  c #5DB88F",
">  c #5EB692",
",  c #5DBA93",
"<  c #61B38D",
"1  c #62B692",
"2  c #63BB95",
"3  c #6ABC96",
"4  c #65BD99",
"5  c #6ABE99",
"6  c #5FC198",
"7  c #64C19A",
"8  c #6DC39D",
"9  c #6DC89F",
"0  c #73C59E",
"q  c #78C69F",
"w  c #72C89F",
"e  c #6EC5A1",
"r  c #6FC9A3",
"t  c #6EC8A2",
"y  c #6ECAA3",
"u  c #6DC9A4",
"i  c #6FC9A5",
"p  c #6FCBA4",
"a  c #6ECDA5",
"s  c #6DCEA5",
"d  c #6ECAA1",
"f  c #73C3A0",
"g  c #70C4A0",
"h  c #71C5A1",
"j  c #72C4A0",
"k  c #73C5A1",
"l  c #71C7A0",
"z  c #70C6A1",
"x  c #72C7A0",
"c  c #71C7A2",
"v  c #70C6A3",
"b  c #72C6A2",
"n  c #73C7A3",
"m  c #75C5A0",
"M  c #74C6A0",
"N  c #75C7A1",
"B  c #77C7A0",
"V  c #76C6A1",
"C  c #74C6A2",
"Z  c #75C7A3",
"A  c #77C7A2",
"S  c #76C6A3",
"D  c #71C7A4",
"F  c #70C7A5",
"G  c #77C7A4",
"H  c #75C7A2",
"J  c #78C5A3",
"K  c #78C6A4",
"L  c #70C8A0",
"P  c #72C8A1",
"I  c #73C8A1",
"U  c #70C8A2",
"Y  c #71C9A3",
"T  c #73C9A2",
"R  c #72C8A3",
"E  c #74C9A2",
"W  c #76C8A2",
"Q  c #77C9A3",
"!  c #74CAA3",
"~  c #75CAA3",
"^  c #73C9A4",
"/  c #70CAA4",
"(  c #71CBA5",
")  c #72CAA4",
"_  c #73CBA5",
"`  c #71C8A6",
"'  c #73C9A6",
"]  c #74C8A4",
"[  c #75C9A5",
"{  c #76C8A4",
"}  c #77C9A5",
"|  c #75CBA4",
" . c #74CAA5",
".. c #76CBA4",
"X. c #74C8A6",
"o. c #76CAA6",
"O. c #77CBA7",
"+. c #71CDA6",
"@. c #72CCA6",
"#. c #72CEA7",
"$. c #75CDA5",
"%. c #76CCA5",
"&. c #77CCA5",
"*. c #75CDA7",
"=. c #77CDA6",
"-. c #76CCA7",
";. c #74C9A3",
":. c #78C8A3",
">. c #78C8A5",
",. c #78CAA4",
"<. c #79C9A6",
"1. c #78CAA6",
"2. c #79CBA7",
"3. c #78CDA6",
"4. c #79CAA5",
"5. c #73CAA8",
"6. c #76CAA8",
"7. c #77CBA9",
"8. c #73CFA8",
"9. c #75CCA9",
"0. c #77CDA8",
"q. c #76CCA9",
"w. c #74CEA8",
"e. c #75CFA9",
"r. c #75CFAB",
"t. c #77CBA9",
"y. c #7ACCA8",
"u. c #78CCAA",
"i. c #78CEAB",
"p. c #7ACEAA",
"a. c #78CFAC",
"s. c #7ACEAC",
"d. c #7BCCAA",
"f. c #7AD2AC",
"g. c #7ED1AC",
"h. c #7CD3B1",
"j. c #81D3AE",
"k. c #83D5B1",
"l. c #86D9B4",
"z. c #89DBB7",
"x. c #8BDDB9",
"c. c #91E3BF",
/* pixels */
"R R R R R R n n Z Z Z J Z Z Z Z Z n n n n n n n n >.n >.Z n n n J J 0 J 0 0 J q Z J 0 J q Z W Z 0 W Z 0 R q R q R q R q R q R q ",
"R R R R R R n n Z Z Z Z Z J Z J Z n n n n n n n n n Z Z Z Z >.Z ,.0 J 0 0 J 0 Z 0 W ,.0 J 0 0 W ,.0 0 ,.q R q R q R q R q R q R ",
"R R R R n n n n Z Z Z Z J Z J Z Z Z Z Z Z Z Z Z Z Z Z Z Z Z Z J q J 0 0 J 0 J J J q q Z q Z 0 q Z W W Z R q R q R q R q R q R q ",
"R R R R n n n n Z Z Z Z Z J Z J Z Z Z n Z Z Z Z Z Z >.n Z Z Z Z Z 0 q Z 0 0 J 0 J 0 Z 0 Z q J J 0 0 ,.0 q R q R q R q R q R q R ",
"R R n n n n n n Z Z Z Z Z Z J Z n J Z J Z J Z J J >.>.>.>.>.Z >.W W 0 Z q W Z 0 Z 0 W R W 0 0 W ,.0 W W Z 0 R q R q R q R q R q ",
"R R n n n n n n Z Z Z Z Z Z n J J Z J n J Z J Z >.Z >.J J n >.>.W 0 W 0 W 0 W W W W q W W W W W q W 0 W q W q R q R q R q R q R ",
"n n n n n n n n Z Z Z Z Z Z Z J J J Z J Z J Z Z >.Z g Z g n Z Z 0 W 0 W W 0 q R W 0 W W n 0 0 W W W W W R q R q R q R q R q R q ",
"n n n n n n n n Z Z Z Z Z Z Z n n J J Z J Z Z Z J Z 0 5 5 J Z Z Z W 0 Z 0 0 R q W 0 Z 0 W W W W W 0 Z 0 q R q R q R q R q R q R ",
"Z Z Z Z Z Z Z Z n n n n n n 6.<.J <.<.<.<.>.X.W K 1 & > & > 5 n 8 &.W 9 ! w 8 8 8 w &.w w W R w R q R q R q R q R q R q R q R q ",
"Z Z Z Z Z Z Z Z n n n n n n n n n Z 0 g 0 Z W W v & % % # $ 2 i 0 =.W 0 q &.w R 0 R &.W w R W R q R q R q R q R q R q R q R q R ",
"J Z Z Z Z Z Z Z n n n n n n n n X.W Z Z g g n u.n ; # $ O $ 4 i 9 W w 8 R &.w q 0 R R w w W R 0 R q R q R q R q R q R q R q R q ",
"Z J Z Z Z Z Z Z n n n n n n t n X.<.<.X.Z n X.0.^ > + @ O & 6 r.0 =.0 9 W w w w 8 R W w w R R w q R q R q R q R q R q R q R q R ",
"J Z J Z Z Z Z Z Z e n X.R 8 5 8 3 8 n X.n t t t i : + + + + 6 s 9 =.! R =.w 7 8 8 w R w 0 R R 0 R q R q R q R q R q R q R q R q ",
"Z J Z J Z Z Z Z n n n ^ t 2 ; > & 1 5 n n n r s i - + + . @ 6 s 9 R w R R 4 - ; 8 w R w 9 R R 0 q R q R q R q R q R q R q R q R ",
"J n J n Z Z Z Z X.Z n ^ 0 ; # # # ; 4 e t r i 8.u , + + + @ 6 u 8 9 0 w 9 1 o o 8 w R 9 9 9 n 9 R q R q R q R q R q R q R q R q ",
"Z J Z J Z Z Z Z X.n n 6.g 1 # # O - 4 8 e 8 i s u : @ = + @ 6 u R =.! R 0 1 $ % 8 w R 0 0 0 w 0 q R q R q R q R q R q R q R q R ",
"0 Z Z 0 W W W 0 W 0 W W 8 ; o   # & 4 h.h.5.5.r.5 - O O O O > ` 8.r ( f.=.4 ; $ R R R R n n n n R q R q R q R q R q R q R q R q ",
"0 Z W W W 0 W W W Z W W 0 3 < ; 1 1 1 e F F ` 5.i 2 - ; > > e 5.r 2 > 2 2 1 1 2 R R R R n n n n q R q R q R q R q R q R q R q R ",
"Z Z 0 0 W W Z 0 W W 0 W 0 0 0 0 i 5 > * 1 e 5.F 6.i 8 n F F 5.s.8 : + + - 1 7 X.R R R R n n n n R q R q R q R q R q R q R q R q ",
"0 W W W W 0 W W Z 0 0 0 0 Z 0 ,.u.e ; # * F 6.F 6.5.n f.5.5.5.u.7 - o o - 2 9 =.R R n t n n n n q R q R q R q R q R q R q R q R ",
"0 W W W 0 Z 0 W 0 0 Z 0 0 0 Z 0 j.5 * o * v u.f 4.^ X.X.p.X.W R 4 ; X X & 2 8 X.R R n n n n n n R q R q R q R q R q R q R q R q ",
"W W 0 0 W W W q 0 W W W W Z 0 0 5 5 < % 1 f K 5 <.W W W <.W W R 2 ; # o $ : 8 X.R R n n n n n n q R q R q R q R q R q R q R q R ",
"W W W Z W 0 W 0 0 W W Z Z W W 0 q 5 3 < 3 0 K 5 ,.q q 0 Z q 0 q 7 4 1 > 1 4 t ^ n n n n n n Z Z R q R q R q R q R q R q R q R q ",
"W 0 W 0 W Z W W 0 W W 0 0 W W 0 5 j.0 0 q q 0 J q q 0 0 0 q q 0 W ( e.( R R X.^ n n n n n n Z Z q R q R q R q R q R q R q R q R ",
"W W W 0 R q R q W R q R W W 0 0 j.q q 3 0 0 q 0 q ,.q q q q 0 0 n R R R R R n n n n Z Z Z Z Z Z R q R q R q R q R q R q R q R q ",
"Z 0 W W q R q R R q R q 0 Z W W 3 j.q j.q q 0 q ,.q q q 0 q 0 q n R R R R R n n n n Z Z Z Z Z n q R q R q R q R q R q R q R q R ",
"R q Z 0 R q R q q R q R W W W 0 3 q q j.q q 0 W W q q q 0 0 0 q n R R R n n n n Z Z Z Z Z Z J Z R q R q R q R q R q R q R q R q ",
"q R q W q R q R R q R q 0 W W W q 3 q j.y.q 0 q w q q w 0 q 0 W n R R R n n n n Z Z Z Z Z Z Z J q R q R q R q R q R q R q R q R ",
"R q R q R q R q 0 0 0 W W W W W j.q j.k.j.q 0 W q R 0 Z 0 Z W W n R n n n n n n Z Z Z Z Z J J Z R q R q R q R q R q R q R q R q ",
"q R q R q R q R 0 W Z 0 0 W W W 3 j.k.x.k.:.0 W R q n 0 0 0 W R n R n n n n n n Z Z Z Z Z Z Z Z q R q R q R q R q R q R q R q R ",
"R q R q R q R q 0 0 Z W W W W ,.q q k.z.l.,.n X.R R W n W n n n n n n n n n Z Z Z Z J Z J Z Z Z R q R q R q R q R q R q R q R q ",
"q R q R q R q R n 0 0 W W W W X.5 j.j.z.j.,.n 4.W ^ R n n n n n n n n n n n Z Z Z Z Z J Z J Z Z q R q R q R q R q R q R q R q R ",
"0 w R R w &.f.j.h.k.h.K X.K K 5 0 n k.x.j.g Z Z 8 J n Z Z Z u.p.g.<.n >.X.Z Z Z Z Z Z Z Z Z Z Z Z q W W R 0 W W W W W Z 0 0 W W ",
"8 w W q w ,.g.l.c.x.k.u.F 7.7.F g J k.x.j.0 Z X.g Z g 0 0 Z j.l.j.4.Z Z >.Z Z Z Z Z Z Z Z Z Z Z 0 J Z w W q W 0 W 0 W 0 W W 0 Z ",
"w w R w w =.j.z.x.x.h.K F F K F Z J j.z.d.n >.<.n >.n Z 0 n k.x.k.y.0 g Z ,.Z Z Z Z Z Z Z Z Z Z W W 0 W 0 W 0 W W W W W R q W W ",
"w w R 0 9 W j.z.z.k.h.K 5 F F F n n k.z.j.>.>.n >.>.<.<.>.d.k.z.l.u.0 0 Z X.Z Z Z Z Z Z Z Z Z Z 0 0 Z W Z W W W Z 0 0 W q W W 0 ",
"q w 0 0 f K j.x.x.x.h.7.X.K F F <.d.k.x.j.<.n g Z Z Z Z n <.k.z.k.<.5 0 Z X.W Z Z Z Z Z Z Z Z Z W W W W q W Z 0 R q R q R q R q ",
"0 w q ,.J d.k.x.c.x.k.6.X.K K K n <.k.z.p.<.<.0 Z n g 0 0 <.j.x.j.<.g n Z J Z Z Z Z Z Z Z Z Z Z W 0 0 Z 0 R W W q R q R q R q R ",
"q q ,.W f 6.j.z.k.k.j.u.K K F K Z Z p.j.n Z <.g n <.d.<.<.<.d.k.p.n n W <.Z Z 0 Z Z Z Z Z Z Z Z W W W W W R 0 0 R q R q R q R q ",
"q ,.,.0 f f K d.K 6.j.k.h.s.K F 0 n <.<.0 n <.Z <.j.l.z.k.p.d.n <.Z n <.<.Z Z Z Z Z Z Z Z Z Z Z Z 0 0 W q W W W q R q R q R q R ",
"w q 0 Z 0 Z J q K f j.z.z.j.f K Z Z g J g n J n n j.z.l.k.k.d.J Z Z Z Z Z Z Z Z Z Z Z Z Z Z Z Z W W W W W W W W n ,.y.0 0 ,.,.0 ",
"w q 0 Z q J J Z f f j.z.z.j.K f Z Z Z 0 Z Z Z Z >.k.z.z.z.l.p.J Z Z Z Z Z Z Z Z Z Z Z Z Z Z Z Z W W W 0 W W W W W W ,.0 0 ,.,.0 ",
"0 q 0 0 0 J ,.0 f K j.z.z.s.K K Z Z Z Z n 0 Z Z >.j.z.x.z.l.j.g Z Z Z Z Z Z Z Z Z Z Z Z Z Z Z Z W 0 W W W W 0 W 0 0 W 0 0 0 Z 0 ",
"q q 0 Z q 0 ,.J f J d.k.k.K K K Z Z Z n Z Z Z Z Z j.k.k.k.k.d.0 Z Z Z Z Z Z Z Z Z Z Z Z Z Z Z Z 0 W W W W W Z W 3 5 8 0 ,.W Z 0 ",
"q 0 0 0 0 J ,.J K K X.<.u.K v K Z Z Z Z Z Z Z Z g >.d.p.d.<.n 8 Z Z Z Z Z Z Z Z Z Z Z Z Z Z Z Z Z 0 W W W W 0 0 < < < 0 ,.W 0 0 ",
"q 0 J J J 0 W q K f f J K f K K <.Z Z Z Z Z Z Z g 0 Z g n g J 0 Z Z Z Z Z Z Z Z Z Z Z Z Z Z Z Z 0 Z 0 W 0 Z 0 W * % < 0 4.,.0 Z ",
"q q q q q J J ,.K K K f K K >.K Z W Z Z Z Z n >.Z J g Z g 0 n 0 Z Z Z Z Z Z Z Z Z Z Z Z Z Z Z Z W 0 Z 0 w n 0 q < % < 0 4.W 0 ,.",
"q J q Z 0 q J q f K K f J F J Z <.X.,.Z Z X.Z <.Z Z Z >.n Z Z R Z Z Z Z Z Z Z Z Z Z Z Z Z Z Z Z R R 0 w 0 w R q 3 % ; 8 =.0 0 <.",
"J Z J n J n Z Z J n Z Z J Z Z Z W w W W W 0 R q R q R q R q R q q R q R q R q R q R q R q R q R 9 w w w w 9 9 9 6 o - 3.3.w ^ X.",
"Z Z Z Z Z Z Z Z Z Z Z Z Z Z Z Z R q Z 0 W W q R q R q R q R q R R q R q R q R q R q R q R q R q 8 w d ! 9 w s 9 7 o * w ,.! X.X.",
"Z Z Z Z Z Z Z Z Z Z Z Z Z Z Z Z q R q R Z q R q R q R q R q R q q R q R q R q R q R q R q R W R 9 w d +.w 9 9 s 6 = : 7 n 6.u.n ",
"Z Z Z Z Z Z Z Z Z Z Z Z Z Z Z Z R q R q 0 W q R q R q R q R q R R q R q R q R q R q R q R q 0 R w w ! 9 6 6 6 6 6 : 7 8 i d.d.g ",
"Z Z Z Z Z Z Z Z Z Z Z Z Z Z Z Z q R q R q R q R R q R q R q R q q R q R q R q R q R q R Z 0 W W w w w 8 : = 6 X - 7 n i n u.u.v ",
"Z Z Z Z Z Z Z Z Z Z Z Z Z Z Z Z R q R q R q R q q R q R q R q R R q R q R q R q R q R q W W W w w w w 7 : o o o & e 0.n 6.6.7.K ",
"Z Z Z Z Z Z Z Z Z Z Z Z Z Z Z Z q R q R q R q R R q R q R q R q q R q R q R q R q R q R W 0 W w 9 w w 7 : o = = - t 6.n 6.6.K 7.",
"Z Z Z Z Z Z Z Z Z Z Z Z Z Z Z Z R q R q R q R q q R q R q R q R R q R q R q R q R q R q W 0 Z R w w +.8 : o o = : r X.e u.6.f 7.",
"Z Z Z Z Z Z Z Z Z Z Z Z Z Z Z Z q R q R q R q R q R q R q R q R q R q R q R q R R q R q R q R w w w 8 8 7 7 2 6 8 t R ^ X.n n K ",
"Z Z Z Z Z Z Z Z Z Z Z Z Z Z Z Z R q R q R q R q R q R q R q R q R q R q R q R q q R q R q R q R $.w ! ! w 9 9 9 t t R =.X.d.K K ",
"Z Z Z Z Z Z Z Z Z Z Z Z Z Z Z Z q R q R q R q R q R q R q R q R q R q R q R q R R q R q R q R q w w R W q ! ! ! t R ^ X.6.6.X.X.",
"Z Z Z Z Z Z Z Z Z Z Z Z Z Z Z Z R q R q R q R q R q R q R q R q R q R q R q R q q R q R q R q R w w 9 w 9 w w d ^ ^ ^ X.6.K K X.",
"Z Z Z Z Z Z Z Z Z Z Z Z Z Z Z Z q R q R q R q R q R q R q R q R q R q R q R q R R q R q R q R q w w 0 w R ! d ! X.X.X.K 6.6.K K ",
"Z Z Z Z Z Z Z Z Z Z Z Z Z Z Z Z R q R q R q R q R q R q R q R q R q R q R q R q q R q R q R q R w w R w w R w R X.X.X.F K K K K ",
"Z Z Z Z Z Z Z Z Z Z Z Z Z Z Z Z q R q R q R q R q R q R q R q R q R q R q R q R R q R q R q R q w w w 0 w w r r X.n K F X.K K K ",
"Z Z Z Z Z Z Z Z Z Z Z Z Z Z Z Z R q R q R q R q R q R q R q R q R q R q R q R q q R q R q R q W w ! W W R R &.^ 5.^ F F K K K K "
};
