/* XPM */
static char *_ff93c112c7e4c7fe7a82b945e333319Q5GJP4oBLIPE0PT4[] = {
/* columns rows colors chars-per-pixel */
"64 64 24 1 ",
"  c None",
". c #5D4638",
"X c #5D4738",
"o c #5D4739",
"O c #5E4738",
"+ c #077243",
"@ c #077343",
"# c #077442",
"$ c #077244",
"% c #0D8A47",
"& c #0E8A46",
"* c #0E8A47",
"= c #19A267",
"- c #1AA366",
"; c #1AA267",
": c #1AA367",
"> c #1BA367",
", c #1AA467",
"< c #1AA268",
"1 c #1AA368",
"2 c #1BA368",
"3 c #1AA468",
"4 c #27BB6A",
"5 c #5DD371",
/* pixels */
"                         ::::::::::::::                         ",
"                         ::::::::::::::                         ",
"                         ::::::::::::::                         ",
"                      1:::::::::::::::::::                      ",
"                      ::::::::::::::::::::                      ",
"                      ::::::::::::::::::::                      ",
"                   >3::::::::::::::::::::::::::                 ",
"                 ::::::::::::::::::::::::::::::                 ",
"                1::::::::::::::::::::::::::::::                 ",
"              1:::::::::::::::::::::::::::::::::::              ",
"             1::::::::::::::::::::::::::::::::::::              ",
"             :::::::::::::::::::::::::::::::::::::              ",
"            ::::::::::::::::::::::::::::::::::::::::1           ",
"           ::::::::::::::::::::::::::::::::::::::::::           ",
"          :::::::::::::::::::::::::::::::::::::::::::           ",
"          :::::::::::::::::::::::::::::::::::::::::::           ",
"          :::::::::::::::::::::::::::::::::::::::::::           ",
"          :::::::::::::::::::::::::::::::::::::::::::           ",
"          :::::::::::::::::::::::::::::::::::::::::::           ",
"          :::::::::::::::::::::::::::::::::::::::::::           ",
"       :::::::::::::::44444:::::::::::::::::::::::::::::        ",
"       :::::::::::::::44444:::::::::::::::::::::::::::::        ",
"       :::::::::::::::44444:::::::::::::::::::::::::::::        ",
"       :::::::::::::::44444:::::::::::::::::::::::::::::        ",
"       :::::::::::::::44444:::::::::::::::::::::::::::::        ",
"       :::::::::::::::44444:::::::::::::::::::::::::::::        ",
"       :::::::::::::::::::::::::::::555555::::::::::::::        ",
"       :::::::::::::::::::::::::::::555555::::::::::::::        ",
"       :::::::::::::::::::::::::::::555555::::::::::::::        ",
"       :::::::::::::::::::::::::::::555555::::::::::::::        ",
"       :::::::::::::::::::::::::::::555555::::::::::::::        ",
"       :::::::::::::::::::::::::::::555555::::::::::::::        ",
"       @@@:::::::::::::::::::::::::::::::::::::::::::@@@        ",
"       @@@:::::::::::::::::::::::::::::::::::::::::::@@@        ",
"          :::::::::::::::::::::::::::::::::::::::::::           ",
"          :::::::::::::::::::::::::::::::::::::::::::           ",
"          :::::::::::::::::::::::::::::::::::::::::::           ",
"          @@@:::::::::@@@::::::::::::::@@@::::::::@@@           ",
"          @@@:::::::::@@@::::::::::::::@@@::::::::@@@           ",
"          @@@:::::::::@@@::::::::::::::@@@::::::::@@@           ",
"             @@@:::@@@@@@::::::::::::::@@@@@@::@@@              ",
"             @@@:::@@@@@@::::::::::::::@@@@@@::@@@              ",
"             @@@:::@@@@@@::::::::::::::@@@@@#1:@@@              ",
"                         @@@@@@@@@@@@@@                         ",
"                         @@@@@@@@@@@@@@                         ",
"                         @@@@@@@@@@@@@$                         ",
"                           XXXXXOOXX                            ",
"                           XXXXXOOXX                            ",
"                           OXXXXXXXO                            ",
"                           OXXXXXXXO                            ",
"                           OXXXXXXOO                            ",
"                           OXXXXXXOO                            ",
"                           OOOXXXXXX                            ",
"                           OXXXXXXXX                            ",
"                           OXXXXXXXX                            ",
"                           OXXXXXXXX                            ",
"                           OXOXXXXOO                            ",
"                           *%%XXO%%                             ",
"                           %%%OXX%%                             ",
"                           %%%OOX                               ",
"                                                                ",
"                                                                ",
"                                                                ",
"                                                                "
};
