/* XPM */
static char *_85376717c7a4d538a7c562906fb83fdsdEB4f4FQMvbUV0c[] = {
/* columns rows colors chars-per-pixel */
"64 64 224 2 ",
"   c None",
".  c #030001",
"X  c #0B0001",
"o  c #140001",
"O  c #1C0000",
"+  c #16090C",
"@  c #1C1315",
"#  c #230000",
"$  c #2D070F",
"%  c #270D07",
"&  c #30050F",
"*  c #3C050A",
"=  c #361A0D",
"-  c #2F0511",
";  c #300613",
":  c #360F19",
">  c #3A0E18",
",  c #3E0410",
"<  c #361119",
"1  c #3E101B",
"2  c #3B2525",
"3  c #4E0010",
"4  c #580A17",
"5  c #5B111D",
"6  c #49030E",
"7  c #68061A",
"8  c #75051D",
"9  c #492E1D",
"0  c #442919",
"q  c #47311C",
"w  c #4A1E27",
"e  c #531D2B",
"r  c #650C20",
"t  c #6E1C2C",
"y  c #681122",
"u  c #7D1D2B",
"i  c #472A21",
"p  c #4D252A",
"a  c #472729",
"s  c #54242C",
"d  c #492E31",
"f  c #5B2B35",
"g  c #572C36",
"h  c #4A393B",
"j  c #433437",
"k  c #593038",
"l  c #66242F",
"z  c #71202F",
"x  c #652633",
"c  c #6B2B34",
"v  c #662632",
"b  c #772838",
"n  c #7A323E",
"m  c #64313A",
"M  c #5B5254",
"N  c gray33",
"B  c #57484D",
"V  c #664E55",
"C  c #69595E",
"Z  c #646365",
"A  c #6F696B",
"S  c #796767",
"D  c #881D31",
"F  c #B01B31",
"G  c #852C3D",
"H  c #A3243F",
"J  c #C11933",
"K  c #C82437",
"L  c #D4243E",
"P  c #D73639",
"I  c #E23939",
"U  c #844816",
"Y  c #985624",
"T  c #A06432",
"R  c #BE6F34",
"E  c #E75C3F",
"W  c #F67B3F",
"Q  c #8E3A4B",
"!  c #893648",
"~  c #93394C",
"^  c #9D394D",
"/  c #9D3249",
"(  c #9B3C51",
")  c #963A51",
"_  c #842C42",
"`  c #AA2C45",
"'  c #B72D47",
"]  c #A0364A",
"[  c #A83649",
"{  c #B3324A",
"}  c #BD344C",
"|  c #BD3E4F",
" . c #A73B51",
".. c #BE3451",
"X. c #BE3A52",
"o. c #BE3B5A",
"O. c #CB1D42",
"+. c #CB2C43",
"@. c #CB2D4D",
"#. c #CD2244",
"$. c #D52444",
"%. c #DB2745",
"&. c #D42C45",
"*. c #DA2A44",
"=. c #DB264A",
"-. c #D42C4B",
";. c #DC2A4B",
":. c #D62748",
">. c #C2324D",
",. c #CB334E",
"<. c #DF3641",
"1. c #DD324D",
"2. c #DC3A4C",
"3. c #D33649",
"4. c #CF2D52",
"5. c #C53652",
"6. c #CB3552",
"7. c #C33E5B",
"8. c #C43A54",
"9. c #D43352",
"0. c #DD3953",
"q. c #D72B53",
"w. c #E02645",
"e. c #E12A45",
"r. c #E12B4B",
"t. c #E02749",
"y. c #E4334D",
"u. c #EA364D",
"i. c #EC394E",
"p. c #E63747",
"a. c #F53E46",
"s. c #FA3F45",
"d. c #F33D4C",
"f. c #F83D4D",
"g. c #E32E54",
"h. c #EB2E54",
"j. c #E53352",
"k. c #EA3654",
"l. c #E53A54",
"z. c #EB3953",
"x. c #ED3659",
"c. c #E63958",
"v. c #EB3859",
"b. c #F53754",
"n. c #F23C52",
"m. c #F13C5B",
"M. c #974E5F",
"N. c #BB4453",
"B. c #8E6341",
"V. c #B67454",
"C. c #954E60",
"Z. c #885B64",
"A. c #945966",
"S. c #986A74",
"D. c #827A7D",
"F. c #A46C79",
"G. c #C04C4F",
"H. c #C4415E",
"J. c #C04057",
"K. c #D74B59",
"L. c #D84349",
"P. c #EB4A4E",
"I. c #F64044",
"U. c #FC4444",
"Y. c #F6414C",
"T. c #FB434A",
"R. c #EC5C4C",
"E. c #EF5845",
"W. c #F3584D",
"Q. c #E5435C",
"!. c #EC4D5E",
"~. c #E84859",
"^. c #F74151",
"/. c #FA4351",
"(. c #E75457",
"). c #CC794F",
"_. c #D97E4F",
"`. c #D17758",
"'. c #F46D45",
"]. c #F4694A",
"[. c #FA7D4E",
"{. c #FA794C",
"}. c #FE7B5C",
"|. c #F77C52",
" X c #EF6D49",
".X c #EC4D62",
"XX c #F14F64",
"oX c #ED5363",
"OX c #EA5A69",
"+X c #F45D6C",
"@X c #D47060",
"#X c #FD636E",
"$X c #FD6562",
"%X c #FC7463",
"&X c #FF736E",
"*X c #FF7C68",
"=X c #FE6473",
"-X c #FD6E75",
";X c #FF6D7A",
":X c #FB6775",
">X c #FD7675",
",X c #FF747B",
"<X c #FF7A7A",
"1X c #FE7975",
"2X c #D28352",
"3X c #DB955A",
"4X c #CE834C",
"5X c #F88946",
"6X c #FE8D52",
"7X c #FC8557",
"8X c #FE9D54",
"9X c #FF9658",
"0X c #FF995C",
"qX c #F89558",
"wX c #E58249",
"eX c #D29566",
"rX c #FB9B61",
"tX c #F6A464",
"yX c #FF7481",
"uX c #FF7A83",
"iX c #878183",
"pX c #8D8B8B",
"aX c #898586",
"sX c #998589",
/* pixels */
"                                                                                                                                ",
"                                                                                                                                ",
"                                                                                                                                ",
"                                                                                                                                ",
"                                                                                                                                ",
"                                                                                                                                ",
"                                                                N .                                                             ",
"                                                                  .                                                             ",
"                                                                Z .                                                             ",
"                                                                A .                                                             ",
"                                                                C X                                                             ",
"                                                            X % j X                                                             ",
"                                                            o h h +                                                             ",
"                                                          S + d 2 + M                                                           ",
"                                      . . . . . . . . . X o d 2 @ @ . . . . . . . . . . .                                       ",
"                                      o g g p a i i 9 0 9 9 2 2 < % = q q q q i a s p k O                                       ",
"                                  V A.^ ` 7.o.N.@X).4X3XeXB.X 0 V.4X4X3X3X2X).`.G.| X.[ ] M.C Z                                 ",
"                                V # 7 } +.1.2.L.%X|.6X8XtXT O # 2X5X5X8X8X6X|.*XP.2.l.-.5.8 # o                                 ",
"                                C.7 { K.~.K.(.(.%X}.[.6XqXR U Y wX5X5X5X6X[. X$X(.!.Q.-.9.' D b                                 ",
"                            X #  .X.K.uX<X<X1X1X>X*X7X[.wXqXtXqX9X9X5XW [.E.P p.-X,X;X0.Q.9.>. .* X D.                          ",
"                            O 5 ` F K.uX1X1X<X>X1X&X%X%X|.6X0X9X9X0X7X{.}.W.P l.;XuX;X+.2.-.&.>.b # sX                          ",
"                          S.z ] OXOX:X<X1X>X1X<X,X,X&XR.R.].'.'.'. X].E.W.Y.n.m.XXoX+X:X=XQ.$.@.` t A.                          ",
"                      X O b o.,.,XuX<X1X1X<X1X<X<X<X:XP P P I I I I p.P p.p.n.b.z.&.(.,XyX.X#.q.9.7._ # X                       ",
"                      X > ) 5.-.-X<X1X<X<X>X<X,X;XyX:Xp.z.d.T.f.f.f.n.n.k.n.f.n.b.k.!.,XyXXXO.g.=.6.^ e X                       ",
"                      X $ ! 5.&.-X<X1X1XyXOX3.l.l.1.l.~.i.a.T.s.s.T.I.a.d.u.L e.r.w.r.u.l.;.=.=.;.5.~ > .                       ",
"                      . $ Q 5.&.-X<X>XuXyX!.J :.:.$.;.n.n.T.T.T.T.T.T.I.n.p.*.*.%.=.*.$.$.=.t.=.=.6.Q > X                       ",
"                      X - Q 6.&.;X,X>X=X=X!.%.g.;.;.1.l.d.b.f.f.b.f.b.i.i.y.1.r.;.y.1.;.-.;.;.=.=.6.~ > X                       ",
"                      X ; Q ,.*.=X,X#XF K y.m.k.m.v.l.*.e.L w.w.w.w.=.*.*.y.v.c.c.c.1.q.-.;.;.t.t.6.~ > X                       ",
"                      X ; ) 6.&.,XuX:X+.1.j.x.x.k.k.y.*.*.%.*.L *.&.*.*.*.y.x.x.l.v.j.=.:.;.;.=.=.6.Q > X                       ",
"                      X ; Q 5.:..XoXQ.&.:.g.x.k.k.k.k.y.y.u.u.i.i.u.j.u.j.k.x.k.j.l.j.k.y.y.*.=.;.5.Q < X                       ",
"                      X ; Q 8.:.#.L $.;.=.y.z.z.z.z.k.k.k.z.^.n.a.n.z.i.v.b.k.k.v.z.k.k.k.r.%.t.;.5.Q < X                       ",
"                      X ; Q 8.:.=.t.%.=.=.y.z.i.k.z.z.k.u.i.d.a.a.d.i.i.u.k.u.i.u.z.k.z.v.j.%.:.;.5.Q < X                       ",
"                      X ; Q 5.%.t.;.;.k.k.z.j.z.z.b.n.d.a.f.T.T.T.T.d.d.d.i.d.i.i.z.z.k.l.k.l.u.=.6.Q < X                       ",
"                      X $ Q 5.;.=.;.;.j.j.y.i.i.n.n.d.d.f.s.T.s.T.T.T.a.a.d.a.d.i.i.u.j.k.v.j.k.;.6.Q < .                       ",
"                      X $ ~ 5.%.g.r.y.z.i.i.i.a.a.d.a.a.s.U.s.s.U.T.T.a.U.f.d.d.d.n.z.i.z.z.k.v.r.5.Q < X                       ",
"                      X & Q 6.=.k.k.l.^.^.T./.Y.T.T.T.U.U.U.I s.U.U.U.U.T.T.T./.T./.Y.n.d.k.k.k.t.5.Q < X                       ",
"                      X $ Q ,.%.v.z.i.i.d.I.T.T.T.U.T.U.U.U.E E U.U.s.s.U.U.T.T.T.T.T.I.d.i.k.x.r.6.~ < .                       ",
"                      X $ Q ,.%.j.z.z.d.d.T.T.U.U.U.U.U.U.U.s.s.U.U.I E U.U.U.T.U.T.T.Y.Y.z.k.k.t.,.Q < .                       ",
"                      . ; Q 6.=.k.k.z.n.d.f.T.s.s.I U.E U.U.U.U.U.U.s.U.U.U.U.s.U.U.T.T./.n.k.x.t.,.~ < .                       ",
"                      X - Q 5.;.x.z.z.n.d.T.T.s.s.s.E s.U.U.U.T.s.E I s.E U.U.U.U.U.U.T./.z.k.x.r.6.~ < .                       ",
"                      X 1 ~ 5.=.j.x.k.i.u.f.T.T.U.U.U.U.U.U.U.U.I U.U.U.U.U.U.U.U.U.T.a.i.i.k.k.r.@.( w X                       ",
"                      X O b H.-.c.c.k.i.u.a.T.T.U.U.U.U.U.U.U.U.U.U.U.U.U.U.U.U.U.U.I.p.i.z.v.l.9.7.! # X                       ",
"                          S.b [ 9.j.j.z.u.d.T.T.T.U.U.U.U.U.U.U.U.U.U.U.T.U.U.U.U.Y.Y.i.v.j.y.0.{ G Z.sXD.                      ",
"                            O 4 ' ;.y.y.u.d.d.d.U.U.U.U.U.U.U.U.E U.T.U.T.U.U.T.I.Y.z.j.l.j.*.>.D # sX                          ",
"                            X e { ;.1.c.z.z.^.a.T.T.U.U.s.E U.U.s.s.U.U.U.U.Y.Y.d.n.n.v.v.y.*.} l o iX                          ",
"                            . g { :.;.r.r.u.z.i.d.s.s.T.s.U.U.U.U.s.U.U.U.U.I.Y.i.v.k.r.;.;.*.} c X pX                          ",
"                            . w { ;.q.;.=.j.z.u.d.d.s.U.s.s.U.T.T.s.U.U.U.I.a.a.z.z.j.=.;.=.;.5.c X iX                          ",
"                            . 2 ^ 5.@.-.;.j.z.z.z.d.n./.T.U.U.T.U.U.T.U.T.I.i.d.z.z.j.=.;.@.>. .f X                             ",
"                                Z.3 [ @.:.*.;.3.y.l.i.i.b.a.T.T.T.T.T.p.i.u.b.k.y.*.y.L -.` t f                                 ",
"                                B # 4 o.6.&.*.;.l.l.k.l.y.d.T.T.T.T.T.z.v.k.k.b.*.*.+.,.H.7 O X                                 ",
"                                    S.n ] { -.t.g.k.y.k.p.d.^.Y.Y.n.n.p.y.j.k.h.r.-.} ^ G F.sX                                  ",
"                                      O 5 / 6.;.=.t.w.w.*.y.z.i.i.i.p.L %.*.t.=.=.6./ 5 #                                       ",
"                                      X O z H.4.=.r.w.w.*.y.v.v.z.z.y.*.*.;.;.-.4.H.b # o                                       ",
"                                            r H @.;.%.:.*.*.r.r.;.y.r.*.*.:.-.,.` r F.                                          ",
"                                            o 6 ' =.;.;.;.;.:.:.=.=.*.%.;.:.;.5.y # sX                                          ",
"                                            . d ^ o...} X.X.....o.X.>.>.5...5. .m X                                             ",
"                                                Z., c l v x x x x x l l l l x f                                                 ",
"                                                M X o X X X X X X X X o o X X X                                                 ",
"                                                  aX      pXpXpXpXpXpX                                                          ",
"                                                                                                                                ",
"                                                                                                                                ",
"                                                                                                                                ",
"                                                                                                                                ",
"                                                                                                                                "
};
