/* XPM */
static char *f8d0f57caa7b495ac732d03b59f402326KH5fMPOzehBfIWT[] = {
/* columns rows colors chars-per-pixel */
"64 64 224 2 ",
"   c None",
".  c #000000",
"X  c #160000",
"o  c #1C1C1C",
"O  c gray8",
"+  c #2A0000",
"@  c #270507",
"#  c #3C0000",
"$  c #37090B",
"%  c #002121",
"&  c #003535",
"*  c #232323",
"=  c #2C2C2C",
"-  c #343434",
";  c #3D3D3D",
":  c #2D2E2F",
">  c #430000",
",  c #4B0202",
"<  c #4B040D",
"1  c #410F0F",
"2  c #550000",
"3  c #5B0202",
"4  c #5E040A",
"5  c #4A0714",
"6  c #471211",
"7  c #521312",
"8  c #5C1515",
"9  c #57130A",
"0  c #6B0003",
"q  c #740101",
"w  c #7C0000",
"e  c #74000D",
"r  c #7B000D",
"t  c #640111",
"y  c #740012",
"u  c #7B0113",
"i  c #770C16",
"p  c #6A1717",
"a  c #751918",
"s  c #7B1719",
"d  c #6E1E00",
"f  c #5E3400",
"g  c #673900",
"h  c #723010",
"j  c #6C1C20",
"k  c #4E3331",
"l  c #74322D",
"z  c #765900",
"x  c #001F47",
"c  c #003246",
"v  c #233E49",
"b  c #334347",
"n  c #454545",
"m  c #4B4B4B",
"M  c #545454",
"N  c #5C5C5C",
"B  c #565A5A",
"V  c #515050",
"C  c #694748",
"Z  c #685757",
"A  c #795252",
"S  c #5F6060",
"D  c #646464",
"F  c #6C6C6C",
"G  c #696363",
"H  c #7A6366",
"J  c #747474",
"K  c #7D7D7D",
"L  c #7C7373",
"P  c #840000",
"I  c #8A0000",
"U  c #84000D",
"Y  c #9B0302",
"T  c #8A190F",
"R  c #840013",
"E  c #880519",
"W  c #96051A",
"Q  c #851C1D",
"!  c #8B1C1E",
"~  c #881619",
"^  c #961A1E",
"/  c #AD0003",
"(  c #A20000",
")  c #B50000",
"_  c #A4021C",
"`  c #B1031B",
"'  c #B31C1C",
"]  c #AF1F1F",
"[  c #8B2D08",
"{  c #8A271D",
"}  c #943411",
"|  c #88380D",
" . c #8D1E21",
".. c #B71A23",
"X. c #AC1020",
"o. c #8C2823",
"O. c #982323",
"+. c #8E3226",
"@. c #9B3729",
"#. c #983033",
"$. c #AB2424",
"%. c #A62323",
"&. c #B42626",
"*. c #BB2727",
"=. c #AE372C",
"-. c #B7372D",
";. c #C42629",
":. c #C32A2A",
">. c #C92E2C",
",. c #C6382F",
"<. c #D63D34",
"1. c #994807",
"2. c #A34402",
"3. c #A55705",
"4. c #A54714",
"5. c #A65811",
"6. c #B7540F",
"7. c #B56801",
"8. c #B47407",
"9. c #B66A12",
"0. c #BD7612",
"q. c #AE670B",
"w. c #9C4931",
"e. c #A44731",
"r. c #B54733",
"t. c #AF5B3C",
"y. c #A45035",
"u. c #BD593B",
"i. c #A3422F",
"p. c #C85017",
"a. c #C6770A",
"s. c #C67612",
"d. c #C26A00",
"f. c #CC4937",
"g. c #D34738",
"h. c #C55E3F",
"j. c #DD583F",
"k. c #CA6227",
"l. c #985C5D",
"z. c #854141",
"x. c #946969",
"c. c #837778",
"v. c #A47E7E",
"b. c #DD5D42",
"n. c #CD6B47",
"m. c #C66C46",
"M. c #D86846",
"N. c #DD774E",
"B. c #E36B49",
"V. c #E3764E",
"C. c #EB7B51",
"Z. c #E77850",
"A. c #BE8000",
"S. c #CD840E",
"D. c #C48900",
"F. c #D48C08",
"G. c #DB9800",
"H. c #D1910B",
"J. c #E29E0A",
"K. c #DCA708",
"L. c #E8B802",
"P. c #F1BB00",
"I. c #E8A813",
"U. c #F8BC16",
"Y. c #EFBF15",
"T. c #F0BC3B",
"R. c #F9C809",
"E. c #FDCC17",
"W. c #F9C616",
"Q. c #FFD618",
"!. c #FFDA18",
"~. c #FFD217",
"^. c #FFD100",
"/. c #FFE219",
"(. c #FFD320",
"). c #9E8A7F",
"_. c #F38A5A",
"`. c #F18758",
"'. c #ED8758",
"]. c #CA996C",
"[. c #E1B179",
"{. c #FFD959",
"}. c #FFDD6E",
"|. c #7F8183",
" X c #848484",
".X c #8E8282",
"XX c #8C8C8C",
"oX c #848788",
"OX c #939393",
"+X c #9C9C9C",
"@X c #979898",
"#X c #8D9494",
"$X c #AB9898",
"%X c #A3A3A3",
"&X c #ACA4A4",
"*X c #ACACAC",
"=X c #B3B3B3",
"-X c #BCBCBC",
";X c #B9B5B6",
":X c #B1ADAD",
">X c #E8B987",
",X c #E5BE9C",
"<X c #C5B6B6",
"1X c #CEB9AF",
"2X c #E0BBA1",
"3X c #FFE385",
"4X c #E3C9B9",
"5X c #FFDEA8",
"6X c #C4C4C4",
"7X c #CBCBCB",
"8X c #C0C6CA",
"9X c #D3D3D3",
"0X c #DCDCDC",
"qX c #DBD6D6",
"wX c #ECD9CF",
"eX c #F9E4C6",
"rX c #E3E3E3",
"tX c #ECECEC",
"yX c #E8E7E8",
"uX c #FBF7EE",
"iX c #F4F4F4",
"pX c #FFFFFF",
"aX c #F7F6F7",
"sX c #F8EDE3",
/* pixels */
"                                                                                                                                ",
"                                                                                                                                ",
"                                                                                                                                ",
"                                                                                                                                ",
"                                                                                                                                ",
"                                                                                                                                ",
"                                                                                          7 t e                                 ",
"                                                                                          7 w.r.i.                              ",
"                                                                          7 t e           < u.Z.u.~                             ",
"                                                                          1 +.r.e.        < m._.V.^ R                           ",
"                                                                          # y.N.n.+.      < m._.B.` W !                         ",
"                                                                          + t.'.C.-.R     < t.N.B.f.-.!                         ",
"                                                                          @ t.'.C.,._ Q 8 < l i.n.Z.n.i                         ",
"                                                                          + w.N.M.,...%.Q p 3 u n._.M.W R                       ",
"                                                              7 7 1 $ $ $ @ l i.-.,.;.:.%.{ y ~ n._.M.&.W {       u ~ o.        ",
"                                                              7 p s { s Q a i e W &.*.' Y P 0 w u.Z.b.;...!     e.r.=.~         ",
"                        @XXXK                                 1 Q $.*.*.&.&.%.! o.O.I q 3 # X # Y g.g.;.$.Q y +.n.Z.u.R         ",
"                        @X-X6X*X                              $ a $.:.*.;.>.&.~ q q l Z L .X.X.Xl.) ) ' ^ Q E =.C.`.u.e         ",
"                        XXqXtX7XK                                 a { ^ $.>.' q # > H &X7XrXtXtX&XP P I I o._ ,.C.'.t.>         ",
"                        XXrXpXaX-X+X                              @ 7 p ^ ] #.C m Z +X9XiXpXpXpXwXv.x.l.z.~ ` ,.B.V.y.X         ",
"                        XX0XpXpXiX-XK                                 8 q q A L XX%X9XtXpXpXpXpXaXrX7X&Xx.I / >.g.f.@.$         ",
"                      K XX7XiXpXpXiX=X+X                              < > # Z @X<X9XtXpXpXpXpXpXpXpXaX9X$XP Y *..._ i 6         ",
"                OXXXK K |.*X9XiXpXpXtX-X X                                * |.:XqXiXpXpXpXpXpXpXpXpXpXtX%X> w O.! i             ",
"                OX;X-X-X=X*X:X9XtXpXpXtX+X X                              B @X-XrXpXpXpXpXpXpXpXpXpXpXpX<XZ j e 4 $             ",
"                XX7XtXaXtX7XOXXX*XtXpXtX=X).:                         ; S K %X-XrXpXpXpXpXpXpXpXpXpXpXpX0X&XL > 2 7             ",
"                 XqXpXpXpXrX*XOXOX7XtXrX6X%XB m                       B |.XX%X-X0XpXpXpXpXpXpXpXiXrXiXpXtX7X.Xd 3 5             ",
"                oX0XpXpXpXpXtXqX;X*X*X6X6X*XK S n n m m n ; ; - - * B ).XXOX%X-XrXaXpXpXpXpXpXpX6XK 9XpXtX6X].7.                ",
"                XX-XtXaXaXpXpXtX7X*XXX*X-X=X+X XD F F D F K K K K K  XOX@XXX%X-X0XpXpXpXpXpXpXpX%X. ;XpX0X1X,X[.                ",
"                  &X=X7XqXiXpXtX7X-X;X%X+X=X-X+X X X XJ  X%X=X*X:X=X%XOXXXXX%X;X0XpXpXpXpXpXpXpX*X. 8XpX4X].wXuX2Xd.            ",
"                    F OX%X9XtX0X;X6X7X*X+X;X6X*XOX@X%X*X;X9X0X0X0X0X7X*XOXXX%X-X0XtXpXpXpXpXpXpX7X@X7XsX>XJ.eXuX5XG.G.          ",
"                    - n B XX*X%X+X=X8X6X-X8X6X%XXX%X-XrXiXiXaXiXaXaXyX6X%X X@X-X7X9XrXpXpXpXpXpXaXrX4X[.T.R.}.3X{.P.J.S.        ",
"                   XXX@XXXXXXXOX+X=X7X6X6X6X6X*X%X6XrXaXpXpXpXpXpXpXpX0X6X=X=X6X6X;X0XpXpXpXpXpXpXpX4Xd.G.W.P.P.^.(.W.S.        ",
"                - *XrXiXyX9X-X;X-X7X7X=X+X;X8X;X6XrXaXpXpXpXpXpXpXpXpXaXiXiX0X6X;X-X0XpXpXpXpXpXpXpX1X2.3.8.7.A.R.Q.U.S.        ",
"                - 6XpXpXpXiX7X-X;X=X=X+XXX:X7X6X9XiXpXpXpXpXpXpXpXpXpXpXpXpXaX0X7X7XyXpXpXpXpXpXpXpX1XI I W u } H.Y.I.a.        ",
"                - 6XpXpXpXiX9X+XF D F K OX=X7X6X7XtXpXpXpXpXpXpXpXpXpXpXpXpXaXaXiXiXaXpXpXpXpXpXpXpX<XI Y ` W { 9.s.s.5.        ",
"                - %X0XiXrX9X=XXXF D F  X%X-X8X6X7XiXpXiXtXtXtXtXtXtXtXiXaXpXpXpXpXpXpXpXpXpXpXpXpXpX<XP / f.=.E u R { [         ",
"                  J K XXK F N XX=X;X=X-X6X6X7X6X9XpXpX7X%X%X%X*X%X%X=X6XrXaXpXpXpXpXpXpXpXpXpXpXpXpX<XI p.V.u.u                 ",
"                    . . . n  X=X7X7X7X6X-X-X;X=X;X0X0X=XXX+X*X%X%X%X*X6X0XpXpXpXpXpXpXpXpXpXpXpXpXpX;Xw k.`.n.W                 ",
"                      . . %XrX0X6X7X7X=X+X%X+X|.D J XX%X6X0XtXtXtXtXtXiXaXpXpXpXpXpXpXpXpXpXpXpXpXpX;X0 k._.M.` E $             ",
"                      J XXrXpXiX6X-X-X%XXX X XJ J F OX-XrXpXpXpXpXpXpXpXpXpXpXpXaXiXaXpXpXpXpXpXpXiX&X, 6.Z.j...^ 6             ",
"                    . %XrXpXpXtX7X=X+X+X#XJ G +X6X0XiXaXpXpXpXpXpXpXpXpXpXpXpXpXtX7XrXpXpXpXpXpXiX9XoX# ( g.<.;.^ 1             ",
"                  m F qXpXpXpX0X=X@XXXXX XN V OX6XyXaXaXaXpXpXpXpXpXpXpXpXpXpXpXtX9X0XaXaXiXaXiX0X<XOXH #./ ` $.Q 1             ",
"                n ).*X0XpXpXpX9XJ K XXK S m ; m F OX:X6X0XiXpXpXpXpXpXpXpXpXpXpXpXiXrX0X9X9X9X9X7X6X<X:Xc., 3 3 3               ",
"                n +X6XtXpXpXaX=X; F OXJ m D K  XXX+X*X-XqXiXpXpXpXpXpXpXpXpXpXpXpXpXtX;X=X6X-X6X6X8X9X8X#X& % %                 ",
"                n OX-XtXpXaX0X%Xm J @XJ B XX6X0XiXtXiXiXiXpXpXpXpXpXpXpXpXpXpXpXpXpX0X%X%X6X6X6X6X6X7X7X*X|.F b                 ",
"                n #X-XrXaX0X:XoXD J |.D N +X7XyXpXaXpXpXpXpXpXpXpXpXpXpXpXpXpXpXpXaX9XOX%X6X7X6X7X6X6X-X%XXXF M                 ",
"                n OX-X9X0X;XK J oXF n ; B |.%X*X;X7XrXaXpXpXpXpXpXpXpXpXpXpXpXpXaX0X=XXX%X6X7X6X7X7X;X+XXXD N                   ",
"                n @X6X6X=X X; J OXF . o B K XX).oX%X-XrXiXtXtXtXtXaXaXiXaXaXaXaXrX-X%X%X*X6X7X6X6X-X%X|.D n                     ",
"                n @X6X=XK B V K @XF . = N  X@XOXXX@X+X*X=X=X*X*X;X7X9X9X9XqXqX0X6X%X*X<X6X7X7X7X;X+X|.F M                       ",
"                n +X6X%Xn o M J  XD . o M J XXOXOXOXXX XoXXXOXXX%X;X6X6X-X;X=X;X%XXX%X-X6X-X6X-X%X).D b                         ",
"                m %X7X*X- O M D D m . . = V F XX@X@XOXXX@X=X6X-X6X8X7X7X-X%X+X+X@X#X@X+X%X%X%X%XOXD B                           ",
"                ; XX=XOXO . m M m - . . . * m J XXXX@XXX+X=X6X-X-X-X-X-X:X@XoXXXXXOXOXXX XK |.K F m                             ",
"                o V F Z   . * m M ; .     . : M F XX+X@X@X%X+X%X+X%X+X%X+XOXOX@X@X@X@X@XK m ; m n                               ",
"                . . .       . - m ; .       . * V J oX|. XoXOXXXXXXXXXXXXX@XXXoX X XXXoXD . . .                                 ",
"                              * = o .         O = n m - B oX+X@X@X@X@X@X@X+XoXM ; m m m ;                                       ",
"                                . . .           . . . X k F  X|.|.|.|.|.oXoXF . . . . .                                         ",
"                                                      [ +.k c x x c b v b v c                                                   ",
"                                                      4.2.g f z z z 9 # > f g                                                   ",
"                                                      } 6.8.H.L.K.A.3.[ 1.7.7.1.                                                ",
"                                                      T 5.a.I.~.E.Y.S.5.q.I.I.6.T                                               ",
"                                                          S.U.Q./.E.I.5.0.~.W.9.U                                               ",
"                                                          S.J.Y.!.!.W.5.9.E.Y.5.U                                               ",
"                                                                  !.E.9.}                                                       ",
"                                                                  !.E.s.u                                                       "
};
